<?xml version="1.0" standalone="no"?>
<!DOCTYPE svg PUBLIC "-//W3C//DTD SVG 20010904//EN"
 "http://www.w3.org/TR/2001/REC-SVG-20010904/DTD/svg10.dtd">
<svg version="1.0" xmlns="http://www.w3.org/2000/svg"
 width="497.000000pt" height="175.000000pt" viewBox="0 0 497.000000 175.000000"
 preserveAspectRatio="xMidYMid meet">

<g transform="translate(0.000000,175.000000) scale(0.100000,-0.100000)"
fill="#000000" stroke="none">
<path d="M0 875 l0 -875 2485 0 2485 0 0 875 0 875 -2485 0 -2485 0 0 -875z
m1520 605 c36 -24 -23 -30 -312 -30 l-298 0 -2 -297 c-2 -226 -6 -297 -15
-301 -10 -3 -13 65 -13 317 l0 321 313 0 c187 0 318 -4 327 -10z m340 -475 l0
-144 36 24 c62 42 171 29 232 -28 57 -53 67 -89 70 -269 l4 -168 -51 0 -51 0
0 145 c0 160 -9 197 -55 233 -33 26 -91 29 -124 6 -47 -34 -61 -86 -61 -241
l0 -143 -50 0 -50 0 0 365 0 365 50 0 50 0 0 -145z m1670 105 c66 -34 98 -60
135 -110 83 -112 97 -260 36 -380 l-31 -64 20 -20 c11 -12 37 -25 58 -31 39
-12 41 -20 22 -70 -9 -23 -10 -23 -65 -10 -31 7 -67 23 -80 35 l-23 22 -69
-33 c-60 -30 -77 -34 -148 -34 -65 1 -91 6 -137 27 -182 84 -262 310 -176 496
32 68 122 154 188 180 75 30 204 26 270 -8z m-1850 -25 l0 -45 -95 0 -95 0 0
-310 0 -310 -55 0 -55 0 0 310 0 310 -95 0 -95 0 0 45 0 45 245 0 245 0 0 -45z
m722 28 c38 -34 11 -103 -40 -103 -54 0 -81 62 -45 102 20 22 61 23 85 1z
m434 -222 c84 -38 103 -97 104 -318 l0 -153 -50 0 -50 0 0 171 0 171 -29 29
c-53 53 -158 32 -187 -36 -10 -25 -14 -77 -14 -185 l0 -150 -45 0 -45 0 0 240
0 240 39 0 c30 0 41 -5 46 -19 6 -19 7 -18 48 5 52 29 125 31 183 5z m-426
-231 l0 -240 -50 0 -50 0 0 240 0 240 50 0 50 0 0 -240z"/>
<path d="M3281 1014 c-63 -32 -105 -85 -127 -162 -49 -167 69 -342 231 -342
48 0 135 30 135 47 0 4 -19 27 -42 50 l-42 43 34 35 34 35 43 -42 c26 -26 46
-38 52 -33 34 38 41 176 12 241 -62 137 -202 191 -330 128z"/>
</g>
</svg>
